# xmcd
#
# Track frame offsets: 
#        150
#        14773
#        28966
#        47469
#        58430
#        71342
#        86035
#        101613
#        116585
#        137738
#        153562
#
# Disc length: 2341 seconds
#
# Revision: 0
# Processed by: cddbd v1.5.2PL0 Copyright (c) Steve Scherf et al.
# Submitted via: ExactAudioCopy v0.95b4
#
DISCID=9c09230b
DTITLE=Лиса - Следы на траве. Инструментальная музыка
DYEAR=2011
DGENRE=Instrumental
TTITLE0=Прогулка по Парижу (А.Баранов)
TTITLE1=Океанский бриз (Ю.Матвеев, А.Якушенко)
TTITLE2=Никто не обманулся (А.Шепелев)
TTITLE3=Стингрей
TTITLE4=Белый цветок в голубой траве (А.Шепелев)
TTITLE5=Вальс из к/ф "Берегись автомобиля" (А.Петров)
TTITLE6=Стекло (А.Шепелев)
TTITLE7=Песня про Егора (А.Баранов)
TTITLE8=Рыжая Африка (А.Баранов)
TTITLE9=Наш Дом (А.Макаревич)
TTITLE10=Cabora (Д.Забавский, О.Егорова)
EXTD=
EXTT0=
EXTT1=
EXTT2=
EXTT3=
EXTT4=
EXTT5=
EXTT6=
EXTT7=
EXTT8=
EXTT9=
EXTT10=
PLAYORDER=
